<?xml version="1.0" encoding="utf-8"?>
<!-- Svg Vector Icons : http://www.onlinewebfonts.com/icon -->
<!DOCTYPE svg PUBLIC "-//W3C//DTD SVG 1.1//EN" "http://www.w3.org/Graphics/SVG/1.1/DTD/svg11.dtd">
<svg version="1.1" xmlns="http://www.w3.org/2000/svg" xmlns:xlink="http://www.w3.org/1999/xlink" x="0px" y="0px" viewBox="0 0 1000 1000" enable-background="new 0 0 1000 1000" xml:space="preserve">
<metadata> Svg Vector Icons : http://www.onlinewebfonts.com/icon </metadata>
<g><path d="M521.7,653.8l-18.9,27.6c0,0-13.6,25.1,13.8,37.6c70.6,32.1,89,73.1,99.4,86.2c10.7,13.4,28.8,13.3,36.9-2.7c28.3-56.1,59.9-177.6,201.1-282.9c-167.9,60.9-219.8,192.1-219.8,192.1s-32.1-48.8-68.9-63.6C533.3,635.1,521.7,653.8,521.7,653.8L521.7,653.8z M496.3,763.5c-26.4-12-37.4-31-42.1-44.8c-9.7-28.9,1.8-53.7,5.5-60.6c0.8-1.5,1.7-3,2.7-4.4l18.5-27.1c10.4-15.8,32.3-32.1,63.6-32.1c12.6,0,25.8,2.7,39.1,8.1c15.7,6.3,30.1,16.1,42.5,26.7c7.3-10,16.2-20.8,26-31.8c-28.3-16.3-61-30.4-92.2-40.8c-3.7-1.2-27.1-11.9-12.5-57h-0.2c38-39.8,63.3-103.8,63.3-166.9c0-96.9-59.7-147.7-133.5-147.7c-73.8,0-133.1,50.8-133.1,147.7c0,63.3,25,127.6,63.3,167.3c14.9,39.7-11.7,54.4-17.3,56.5c-77.3,28.3-167.9,80.1-167.9,131.1v19.1c0,69.6,132.8,85.4,255.8,85.4c20.8,0,41.8-0.5,62.4-1.6C529.6,781.7,515.6,772.3,496.3,763.5L496.3,763.5z"/><path d="M500,990C229.8,990,10,770.2,10,500C10,229.8,229.8,10,500,10c270.2,0,490,219.8,490,490C990,770.2,770.2,990,500,990z M500,37C244.7,37,37,244.7,37,500c0,255.3,207.7,463,463,463c255.3,0,463-207.7,463-463C963,244.7,755.3,37,500,37z"/></g>
</svg>