<?xml version="1.0" standalone="no"?>
<!DOCTYPE svg PUBLIC "-//W3C//DTD SVG 20010904//EN"
 "http://www.w3.org/TR/2001/REC-SVG-20010904/DTD/svg10.dtd">
<svg version="1.0" xmlns="http://www.w3.org/2000/svg"
 width="512.000000pt" height="512.000000pt" viewBox="0 0 512.000000 512.000000"
 preserveAspectRatio="xMidYMid meet">

<g transform="translate(0.000000,512.000000) scale(0.100000,-0.100000)"
fill="#000000" stroke="none">
<path d="M1746 5109 c-446 -47 -856 -245 -1176 -568 -236 -237 -391 -495 -486
-809 -62 -204 -77 -317 -77 -562 0 -245 15 -358 77 -562 95 -314 251 -573 486
-809 470 -472 1120 -669 1775 -538 183 37 438 134 578 220 l50 31 721 -720
c791 -790 755 -758 905 -784 142 -24 282 21 387 126 105 105 150 245 126 387
-26 150 5 114 -783 904 l-719 721 54 97 c97 176 168 380 208 597 18 95 21 153
21 330 0 245 -16 359 -77 562 -272 895 -1143 1475 -2070 1377z m386 -300 c671
-72 1242 -566 1412 -1221 41 -157 51 -235 51 -418 0 -99 -6 -208 -13 -250 -63
-363 -218 -665 -467 -915 -217 -216 -471 -360 -770 -435 -747 -188 -1537 180
-1876 875 -363 745 -121 1636 569 2098 318 213 708 307 1094 266z m1461 -3067
l157 -157 -108 -108 -107 -107 -158 158 -158 158 103 105 c57 58 105 107 108
107 3 1 76 -69 163 -156z m1208 -1224 c24 -48 24 -89 -1 -138 -35 -69 -124
-98 -193 -64 -18 9 -218 201 -444 427 l-413 412 107 107 108 108 408 -407
c225 -225 417 -425 428 -445z"/>
<path d="M1276 4496 c-22 -13 -47 -39 -57 -57 -32 -60 -19 -170 32 -276 24
-48 112 -146 158 -174 l23 -15 -72 -144 c-40 -80 -74 -147 -76 -149 -2 -2 -58
22 -124 53 -171 82 -264 90 -377 33 -137 -70 -220 -254 -164 -365 24 -47 80
-82 131 -82 73 0 150 74 150 144 0 51 27 48 168 -20 l132 -63 0 -180 0 -181
-95 0 c-172 0 -272 -37 -370 -135 -113 -112 -165 -287 -115 -385 23 -45 80
-80 130 -80 76 0 150 74 150 150 0 48 33 103 78 128 34 19 55 22 140 22 l100
0 6 -34 c10 -53 54 -153 96 -219 l38 -61 -34 -45 c-75 -98 -123 -238 -124
-360 0 -73 28 -131 79 -159 105 -59 221 17 221 146 0 67 24 140 60 184 l31 37
67 -29 c184 -78 398 -78 584 0 l67 27 26 -27 c35 -37 65 -120 65 -182 0 -99
66 -178 149 -178 51 0 108 35 131 80 51 99 2 320 -99 455 l-39 52 38 60 c44
69 85 162 95 216 l7 37 100 0 c79 0 107 -4 138 -20 45 -23 80 -80 80 -130 0
-50 35 -107 80 -130 50 -25 90 -25 140 0 46 23 80 81 80 134 0 110 -51 227
-135 312 -97 98 -197 134 -370 134 l-95 0 0 178 0 177 133 67 c141 70 167 73
167 22 0 -68 79 -144 149 -144 52 0 108 35 132 82 56 111 -27 295 -164 365
-113 57 -207 49 -367 -31 -61 -31 -117 -56 -124 -56 -6 0 -44 66 -85 147 l-73
147 23 15 c46 29 135 127 158 174 75 156 64 290 -29 337 -51 26 -93 25 -142
-2 -45 -25 -78 -80 -78 -128 0 -50 -35 -107 -80 -130 -37 -19 -58 -20 -371
-20 -325 0 -332 0 -371 22 -45 25 -78 80 -78 128 0 50 -35 107 -80 130 -52 26
-96 25 -144 -4z m952 -721 c39 -80 72 -147 72 -150 0 -3 -157 -5 -350 -5 -192
0 -350 2 -350 5 0 3 33 70 72 150 l73 145 205 0 205 0 73 -145z m-428 -890 c0
-239 -2 -435 -5 -435 -3 0 -29 12 -57 26 -67 34 -149 117 -183 185 -50 97 -55
134 -55 407 l0 252 150 0 150 0 0 -435z m600 182 c0 -276 -8 -332 -57 -416
-50 -85 -151 -175 -220 -196 l-23 -6 0 435 0 436 150 0 150 0 0 -253z"/>
</g>
</svg>
